<svg width="28" height="22" viewBox="0 0 28 22" fill="none" xmlns="http://www.w3.org/2000/svg">
<path d="M3.33329 21.6668C2.59996 21.6668 1.9724 21.4059 1.45063 20.8842C0.928848 20.3624 0.667515 19.7344 0.666626 19.0002V3.00016C0.666626 2.26683 0.927959 1.63927 1.45063 1.1175C1.97329 0.595718 2.60085 0.334385 3.33329 0.333496H24.6666C25.4 0.333496 26.028 0.594829 26.5506 1.1175C27.0733 1.64016 27.3342 2.26772 27.3333 3.00016V19.0002C27.3333 19.7335 27.0724 20.3615 26.5506 20.8842C26.0288 21.4068 25.4008 21.6677 24.6666 21.6668H3.33329ZM24.6666 5.66683L14.7 11.9002C14.5888 11.9668 14.4724 12.0171 14.3506 12.0508C14.2288 12.0846 14.112 12.1011 14 12.1002C13.888 12.0993 13.7715 12.0828 13.6506 12.0508C13.5297 12.0188 13.4128 11.9686 13.3 11.9002L3.33329 5.66683V19.0002H24.6666V5.66683ZM14 9.66683L24.6666 3.00016H3.33329L14 9.66683ZM3.33329 6.00016V4.0335V4.06683V4.05083V6.00016Z" fill="#1D2F4E"/>
</svg>
