<svg width="24" height="30" viewBox="0 0 24 30" fill="none" xmlns="http://www.w3.org/2000/svg">
<path fill-rule="evenodd" clip-rule="evenodd" d="M17.696 12.6956C17.696 14.1101 17.1341 15.4667 16.1339 16.4669C15.1337 17.4671 13.7771 18.029 12.3626 18.029C10.9481 18.029 9.59159 17.4671 8.59139 16.4669C7.5912 15.4667 7.0293 14.1101 7.0293 12.6956C7.0293 11.2812 7.5912 9.9246 8.59139 8.9244C9.59159 7.92421 10.9481 7.3623 12.3626 7.3623C13.7771 7.3623 15.1337 7.92421 16.1339 8.9244C17.1341 9.9246 17.696 11.2812 17.696 12.6956ZM15.0293 12.6956C15.0293 13.4029 14.7483 14.0812 14.2482 14.5813C13.7482 15.0814 13.0699 15.3623 12.3626 15.3623C11.6554 15.3623 10.9771 15.0814 10.477 14.5813C9.97691 14.0812 9.69596 13.4029 9.69596 12.6956C9.69596 11.9884 9.97691 11.3101 10.477 10.81C10.9771 10.3099 11.6554 10.029 12.3626 10.029C13.0699 10.029 13.7482 10.3099 14.2482 10.81C14.7483 11.3101 15.0293 11.9884 15.0293 12.6956Z" fill="#1D2F4E"/>
<path fill-rule="evenodd" clip-rule="evenodd" d="M3.72534 21.0238C2.00646 19.3872 0.811479 17.2777 0.291519 14.962C-0.22844 12.6462 -0.0500283 10.2283 0.804194 8.014C1.65842 5.79967 3.15008 3.88837 5.09056 2.52181C7.03104 1.15525 9.33317 0.394794 11.7058 0.336615C14.0785 0.278436 16.4152 0.925144 18.4203 2.19496C20.4254 3.46477 22.009 5.30066 22.9707 7.47046C23.9324 9.64026 24.2291 12.0465 23.8233 14.385C23.4174 16.7234 22.3273 18.8889 20.6907 20.6078L12.416 29.2985L3.72534 21.0238ZM18.76 18.7691L12.324 25.5291L5.56401 19.0931C4.22716 17.8202 3.29779 16.1795 2.8934 14.3784C2.48902 12.5774 2.62779 10.6968 3.29216 8.97459C3.95653 7.25238 5.11667 5.76584 6.62587 4.70295C8.13508 3.64007 9.92557 3.04858 11.7709 3.00327C13.6163 2.95796 15.4337 3.46087 16.9932 4.44841C18.5528 5.43594 19.7844 6.86375 20.5325 8.55129C21.2806 10.2388 21.5115 12.1103 21.196 13.9291C20.8805 15.7478 20.0328 17.4322 18.76 18.7691Z" fill="#1D2F4E"/>
</svg>
