<svg width="60" height="60" viewBox="0 0 60 60" fill="none" xmlns="http://www.w3.org/2000/svg">
<path d="M36.0575 11.7749H24.32C22.7751 11.7749 21.2454 12.0792 19.8181 12.6705C18.3908 13.2618 17.0941 14.1284 16.0018 15.2209C14.9095 16.3135 14.0431 17.6104 13.4521 19.0378C12.8612 20.4652 12.5572 21.995 12.5575 23.5399V35.2774C12.5575 38.397 13.7968 41.3889 16.0027 43.5947C18.2085 45.8006 21.2004 47.0399 24.32 47.0399H36.0575C39.1771 47.0399 42.1689 45.8006 44.3748 43.5947C46.5807 41.3889 47.82 38.397 47.82 35.2774V23.5399C47.8203 21.995 47.5163 20.4652 46.9253 19.0378C46.3344 17.6104 45.468 16.3135 44.3757 15.2209C43.2834 14.1284 41.9866 13.2618 40.5594 12.6705C39.1321 12.0792 37.6024 11.7749 36.0575 11.7749Z" stroke="#FAFAFA" stroke-width="4" stroke-linecap="round"/>
<path d="M55 21.85H47.695M12.6825 21.85H5M55 38.125H47.4675M12.91 38.125H5M38.15 55V46.865M38.15 11.95V5M21.85 55V46.7875M21.85 12.0275V5M33.285 20.11H27.095C26.2802 20.1093 25.4732 20.2693 24.7202 20.5807C23.9673 20.8922 23.2831 21.349 22.7068 21.9251C22.1305 22.5011 21.6735 23.1851 21.3617 23.9379C21.05 24.6908 20.8897 25.4977 20.89 26.3125V32.5025C20.8893 33.3175 21.0494 34.1247 21.361 34.8778C21.6726 35.631 22.1296 36.3152 22.7059 36.8916C23.2823 37.4679 23.9666 37.9249 24.7197 38.2365C25.4728 38.5481 26.28 38.7082 27.095 38.7075H33.285C34.0996 38.7075 34.9062 38.547 35.6588 38.2351C36.4113 37.9232 37.095 37.466 37.6708 36.8898C38.2466 36.3135 38.7032 35.6295 39.0145 34.8767C39.3258 34.1239 39.4857 33.3171 39.485 32.5025V26.3125C39.4853 25.4981 39.3252 24.6916 39.0138 23.9391C38.7023 23.1866 38.2457 22.5028 37.6699 21.9268C37.0942 21.3508 36.4106 20.8939 35.6582 20.5822C34.9058 20.2704 34.0994 20.11 33.285 20.11Z" stroke="#FAFAFA" stroke-width="4" stroke-linecap="round"/>
</svg>
